<svg width="28" height="28" viewBox="0 0 28 28" fill="none" xmlns="http://www.w3.org/2000/svg">
<path fill-rule="evenodd" clip-rule="evenodd" d="M14.558 27.87C14.558 27.87 16.481 20.74 14.558 13.87C12.636 7 7.126 1.685 4.948 0C4.948 0 8.279 9.333 8.792 15.426C8.792 15.426 6.871 10.672 2 9.463C2 9.463 5.376 16.463 6.017 20.352C6.017 20.352 10.587 23.246 14.558 27.87ZM25.579 8.231C21.672 10.185 19.029 14.966 17.752 17.786C18.122 20.431 18.159 22.987 18.037 25.219C20.3 23.433 22.695 20.093 22.695 20.093C22.695 20.093 23.145 16.657 23.08 14.648C23.016 12.638 25.579 8.231 25.579 8.231M16.908 13.98C17.35 13.192 17.833 12.38 18.355 11.565C18.468 10.869 18.595 10.09 18.745 9.205C19.449 5.056 22.653 0.802 22.653 0.802C17.912 3.289 15.413 8.556 15.413 8.556C15.321 8.761 15.253 8.964 15.18 9.166C15.808 10.539 16.36 11.968 16.777 13.458C16.826 13.632 16.863 13.806 16.908 13.981" fill="#1F8ECD"/>
</svg>
