<svg width="28" height="28" viewBox="0 0 28 28" fill="none" xmlns="http://www.w3.org/2000/svg">
<path fill-rule="evenodd" clip-rule="evenodd" d="M0 8.283L3.499 12.2L6.04 11.649L4.817 13.74L8.286 17.667L10.621 10.743L7.934 8.238L0 8.283ZM17.38 10.744L19.715 17.667L23.182 13.741L21.961 11.65L24.501 12.2L28 8.284L20.068 8.238L17.38 10.744ZM14.015 11.381H13.985H13.123L10.621 21.872L13.957 25H14.043L17.38 21.872L14.877 11.381H14.015ZM11.825 3L9.621 6.341L13.592 9.286H14.649L18.621 6.341L16.417 3H11.825Z" fill="#1F8ECD"/>
</svg>
