<svg width="32" height="15" viewBox="0 0 32 15" fill="none" xmlns="http://www.w3.org/2000/svg">
<path d="M16.9856 6.25508C17.0007 6.43238 17.0199 6.71376 17.0335 7.10802C17.0567 7.7696 17.0217 8.17488 16.8911 8.97358C16.3617 12.2048 13.9035 14.2121 10.4764 14.2121C6.62633 14.2121 3.49379 11.0254 3.49379 7.10802C3.49379 3.19028 6.62633 0.00292969 10.4764 0.00292969C12.5406 0.00292969 14.4884 0.926217 15.8194 2.53616L16.0163 2.77415L15.7619 2.9467L13.5037 4.47885L13.3149 4.60682L13.1565 4.44173C12.4428 3.69913 11.4913 3.35385 10.4764 3.35385C8.4076 3.35385 6.72429 5.00279 6.72429 7.10802C6.72429 9.21258 8.4076 10.9251 10.4764 10.9251C12.2254 10.9251 13.3854 9.92009 13.6128 8.79882H10.7596V6.25508H16.9856ZM31.6496 6.25689C31.6646 6.43419 31.6838 6.7154 31.6974 7.10984C31.7206 7.77124 31.6858 8.17669 31.555 8.97523C31.0255 12.2066 28.5675 14.2139 25.1401 14.2139C21.2899 14.2139 18.1578 11.0272 18.1578 7.10967C18.1578 3.19192 21.2899 0.00474338 25.1401 0.00474338C27.2044 0.00474338 29.152 0.928031 30.4834 2.53781L30.6803 2.77579L30.4258 2.94852L28.1677 4.48049L27.9789 4.60847L27.8205 4.44337C27.1063 3.70094 26.1549 3.3555 25.1401 3.3555C23.0715 3.3555 21.3882 5.00443 21.3882 7.10967C21.3882 9.2144 23.0715 10.9269 25.1401 10.9269C26.8892 10.9269 28.0496 9.92174 28.2767 8.80047H25.4235V6.25689H31.6496ZM1.47908 11.3274C2.26043 11.3274 2.89617 11.9741 2.89617 12.7691C2.89617 13.5637 2.26043 14.2104 1.47908 14.2104C0.698071 14.2104 0.0625 13.5637 0.0625 12.7691C0.0625 11.9741 0.698071 11.3274 1.47908 11.3274Z" fill="#5383E8"/>
</svg>
